<svg width="219" height="92" viewBox="0 0 219 92" fill="none" xmlns="http://www.w3.org/2000/svg">
<path d="M4.44727 87.1406C3.57227 87.1406 2.88867 86.7832 2.39648 86.0684C1.9082 85.3535 1.66406 84.3203 1.66406 82.9688C1.66406 81.4844 1.91992 80.3613 2.43164 79.5996C2.94336 78.8379 3.68164 78.457 4.64648 78.457C6.49414 78.457 7.41797 79.8926 7.41797 82.7637C7.41797 84.1855 7.15625 85.2715 6.63281 86.0215C6.11328 86.7676 5.38477 87.1406 4.44727 87.1406ZM4.58203 79.541C3.5625 79.541 3.05273 80.6641 3.05273 82.9102C3.05273 85.0117 3.55273 86.0625 4.55273 86.0625C5.53711 86.0625 6.0293 84.9941 6.0293 82.8574C6.0293 80.6465 5.54688 79.541 4.58203 79.541Z" fill="#424242"/>
<path d="M11.875 92C11.875 79.9184 14.2547 67.9551 18.8781 56.7931C23.5015 45.6312 30.2782 35.4892 38.8212 26.9462C47.3642 18.4032 57.5062 11.6265 68.6681 7.00308C79.8301 2.37965 91.7934 -1.58431e-06 103.875 0C115.957 1.58431e-06 127.92 2.37965 139.082 7.00309C150.244 11.6265 160.386 18.4032 168.929 26.9462C177.472 35.4892 184.248 45.6312 188.872 56.7931C193.495 67.9551 195.875 79.9184 195.875 92L168.643 92C168.643 83.4946 166.968 75.0724 163.713 67.2144C160.458 59.3564 155.687 52.2164 149.673 46.2021C143.659 40.1879 136.519 35.4171 128.661 32.1622C120.803 28.9073 112.38 27.232 103.875 27.232C95.3696 27.232 86.9474 28.9073 79.0894 32.1622C71.2314 35.4171 64.0914 40.1878 58.0771 46.2021C52.0628 52.2164 47.2921 59.3563 44.0372 67.2144C40.7823 75.0724 39.107 83.4945 39.107 92H11.875Z" fill="#D1D1D1"/>
<path fill-rule="evenodd" clip-rule="evenodd" d="M20.7258 57.5585C16.4582 67.8615 14.1448 78.8624 13.8972 90H37.137C37.3793 81.9139 39.0893 73.9332 42.1894 66.449C45.5448 58.3483 50.4629 50.9879 56.6629 44.7879C62.8629 38.5879 70.2233 33.6698 78.324 30.3144C86.4247 26.959 95.1069 25.232 103.875 25.232C112.643 25.232 121.325 26.959 129.426 30.3144C137.527 33.6698 144.887 38.5879 151.087 44.7879C157.287 50.9879 162.205 58.3483 165.561 66.449C168.661 73.9332 170.371 81.9139 170.613 90L193.853 90C193.605 78.8625 191.292 67.8615 187.024 57.5585C182.501 46.6392 175.872 36.7177 167.515 28.3604C159.157 20.0031 149.236 13.3738 138.317 8.85085C127.397 4.32792 115.694 2 103.875 2C92.056 2 80.3528 4.32792 69.4335 8.85084C58.5142 13.3738 48.5927 20.0031 40.2354 28.3604C31.8781 36.7177 25.2488 46.6392 20.7258 57.5585ZM195.853 90C195.605 78.5998 193.24 67.3388 188.872 56.7931C184.248 45.6312 177.472 35.4892 168.929 26.9462C160.386 18.4032 150.244 11.6265 139.082 7.00309C127.92 2.37965 115.957 0 103.875 0C91.7934 0 79.8301 2.37965 68.6681 7.00308C57.5062 11.6265 47.3642 18.4032 38.8212 26.9462C30.2782 35.4892 23.5015 45.6312 18.8781 56.7931C14.5099 67.3388 12.1446 78.5998 11.8967 90C11.8823 90.6662 11.875 91.3329 11.875 92H39.107C39.107 83.4945 40.7823 75.0724 44.0372 67.2144C47.2921 59.3563 52.0629 52.2164 58.0771 46.2021C64.0914 40.1878 71.2313 35.4171 79.0894 32.1622C86.9474 28.9073 95.3696 27.232 103.875 27.232C112.38 27.232 120.803 28.9073 128.661 32.1622C136.519 35.4171 143.659 40.1879 149.673 46.2021C155.687 52.2164 160.458 59.3564 163.713 67.2144C166.968 75.0724 168.643 83.4946 168.643 92L195.875 92C195.875 91.3329 195.868 90.6662 195.853 90Z" fill="white"/>
<path d="M11.875 92C11.875 72.678 17.9585 53.8465 29.2626 38.1763C40.5667 22.5061 56.5176 10.7928 74.853 4.69753C93.1884 -1.39772 112.977 -1.5654 131.413 4.21825C149.849 10.0019 165.997 21.4433 177.565 36.9197L155.752 53.2235C147.609 42.3281 136.241 34.2733 123.262 30.2017C110.283 26.13 96.3516 26.248 83.4435 30.5391C70.5354 34.8301 59.306 43.0763 51.3479 54.1081C43.3898 65.14 39.107 78.3973 39.107 92H11.875Z" fill="#00B7C3"/>
<path fill-rule="evenodd" clip-rule="evenodd" d="M30.8846 39.3464C20.2166 54.1348 14.3016 71.8012 13.8972 90H37.137C37.5359 76.6813 41.9126 63.7691 49.7259 52.9381C57.9297 41.5656 69.5059 33.0647 82.8126 28.6412C96.1193 24.2176 110.481 24.0959 123.861 28.2934C136.604 32.291 147.84 40.013 156.133 50.442L174.747 36.5284C163.528 22.1938 148.213 11.5847 130.815 6.12655C112.78 0.468629 93.4207 0.632668 75.4839 6.59541C57.5471 12.5581 41.943 24.0169 30.8846 39.3464ZM176.35 35.3307C164.879 20.6598 149.213 9.80217 131.413 4.21825C112.977 -1.5654 93.1884 -1.39772 74.853 4.69753C56.5176 10.7928 40.5667 22.5061 29.2626 38.1763C18.3489 53.3054 12.3014 71.3811 11.8967 90C11.8823 90.666 11.875 91.3327 11.875 92H39.107C39.107 78.3973 43.3898 65.14 51.3479 54.1081C59.306 43.0763 70.5354 34.8301 83.4435 30.5391C96.3516 26.248 110.283 26.13 123.262 30.2017C136.232 34.2705 147.593 42.317 155.736 53.201C155.741 53.2085 155.747 53.216 155.752 53.2235L177.565 36.9197C177.565 36.9196 177.565 36.9198 177.565 36.9197C177.165 36.3853 176.76 35.8554 176.35 35.3307Z" fill="white"/>
<path d="M89.0156 68.4062C88.0781 70.125 87.1927 71.8281 86.3594 73.5156C85.526 75.1927 84.7708 76.8802 84.0938 78.5781C83.4167 80.276 82.8281 81.9896 82.3281 83.7188C81.8281 85.4375 81.4427 87.1979 81.1719 89H77.375C77.625 87.3958 77.9792 85.7969 78.4375 84.2031C78.9062 82.599 79.4531 81 80.0781 79.4062C80.7031 77.8021 81.401 76.1927 82.1719 74.5781C82.9531 72.9635 83.7812 71.3333 84.6562 69.6875H74.0469V66.5938H89.0156V68.4062ZM105.703 89H91.6406V87.2656C91.6406 86.5573 91.7396 85.8958 91.9375 85.2812C92.1354 84.6562 92.401 84.0729 92.7344 83.5312C93.0677 82.9792 93.4583 82.4635 93.9062 81.9844C94.3542 81.4948 94.8333 81.026 95.3438 80.5781C95.8542 80.1198 96.375 79.6823 96.9062 79.2656C97.4375 78.8385 97.9583 78.4115 98.4688 77.9844C98.9479 77.5781 99.3854 77.1823 99.7812 76.7969C100.177 76.401 100.516 75.9948 100.797 75.5781C101.078 75.1615 101.297 74.724 101.453 74.2656C101.609 73.7969 101.688 73.2917 101.688 72.75C101.688 72.1562 101.594 71.6406 101.406 71.2031C101.229 70.7552 100.974 70.3854 100.641 70.0938C100.318 69.7917 99.9323 69.5677 99.4844 69.4219C99.0365 69.2656 98.5469 69.1875 98.0156 69.1875C97.099 69.1875 96.1667 69.401 95.2188 69.8281C94.2708 70.2552 93.3594 70.8958 92.4844 71.75V68.2656C92.9427 67.9219 93.4062 67.625 93.875 67.375C94.3438 67.1146 94.8281 66.901 95.3281 66.7344C95.8281 66.5573 96.3542 66.4271 96.9062 66.3438C97.4583 66.2604 98.0469 66.2188 98.6719 66.2188C99.6823 66.2188 100.599 66.3542 101.422 66.625C102.245 66.8854 102.948 67.276 103.531 67.7969C104.115 68.3073 104.562 68.9479 104.875 69.7188C105.198 70.4896 105.359 71.375 105.359 72.375C105.359 73.2812 105.245 74.099 105.016 74.8281C104.797 75.5469 104.479 76.2188 104.062 76.8438C103.656 77.4688 103.161 78.0625 102.578 78.625C101.995 79.1875 101.344 79.7656 100.625 80.3594C100.021 80.849 99.4167 81.3281 98.8125 81.7969C98.2188 82.2552 97.6823 82.7083 97.2031 83.1562C96.724 83.5938 96.3333 84.0365 96.0312 84.4844C95.7396 84.9219 95.5938 85.3646 95.5938 85.8125V85.8906H105.703V89ZM114.391 77.8438C112.807 77.8438 111.547 77.3385 110.609 76.3281C109.672 75.3073 109.203 73.9479 109.203 72.25C109.203 70.3958 109.698 68.9375 110.688 67.875C111.688 66.8021 113.031 66.2656 114.719 66.2656C116.354 66.2656 117.62 66.7604 118.516 67.75C119.422 68.7396 119.875 70.1302 119.875 71.9219C119.875 73.7135 119.37 75.151 118.359 76.2344C117.349 77.3073 116.026 77.8438 114.391 77.8438ZM114.609 68.4531C113.755 68.4531 113.078 68.7812 112.578 69.4375C112.089 70.0938 111.844 70.9948 111.844 72.1406C111.844 73.2656 112.083 74.1406 112.562 74.7656C113.052 75.3906 113.719 75.7031 114.562 75.7031C115.406 75.7031 116.068 75.3802 116.547 74.7344C117.026 74.0781 117.266 73.1719 117.266 72.0156C117.266 70.8906 117.026 70.0156 116.547 69.3906C116.078 68.7656 115.432 68.4531 114.609 68.4531ZM129.562 66.5938L115.188 89.1562H112.953L127.312 66.5938H129.562ZM127.547 89.3438C125.964 89.3438 124.703 88.8385 123.766 87.8281C122.828 86.8073 122.359 85.4479 122.359 83.75C122.359 81.8958 122.854 80.4375 123.844 79.375C124.844 78.3021 126.188 77.7656 127.875 77.7656C129.51 77.7656 130.776 78.2604 131.672 79.25C132.578 80.2396 133.031 81.6302 133.031 83.4219C133.031 85.2135 132.526 86.651 131.516 87.7344C130.505 88.8073 129.182 89.3438 127.547 89.3438ZM127.766 79.9531C126.911 79.9531 126.234 80.2812 125.734 80.9375C125.245 81.5938 125 82.4948 125 83.6406C125 84.7656 125.24 85.6406 125.719 86.2656C126.208 86.8906 126.875 87.2031 127.719 87.2031C128.562 87.2031 129.224 86.8802 129.703 86.2344C130.182 85.5781 130.422 84.6719 130.422 83.5156C130.422 82.3906 130.182 81.5156 129.703 80.8906C129.234 80.2656 128.589 79.9531 127.766 79.9531Z" fill="#424242"/>
<path d="M203.479 78.4102V87H202.119V80.0742C201.873 80.25 201.607 80.4004 201.322 80.5254C201.041 80.6465 200.719 80.7539 200.355 80.8477V79.6875C200.582 79.6133 200.801 79.5352 201.012 79.4531C201.223 79.3711 201.43 79.2793 201.633 79.1777C201.84 79.0762 202.047 78.9629 202.254 78.8379C202.465 78.7129 202.682 78.5703 202.904 78.4102H203.479ZM207.943 87.1406C207.068 87.1406 206.385 86.7832 205.893 86.0684C205.404 85.3535 205.16 84.3203 205.16 82.9688C205.16 81.4844 205.416 80.3613 205.928 79.5996C206.439 78.8379 207.178 78.457 208.143 78.457C209.99 78.457 210.914 79.8926 210.914 82.7637C210.914 84.1855 210.652 85.2715 210.129 86.0215C209.609 86.7676 208.881 87.1406 207.943 87.1406ZM208.078 79.541C207.059 79.541 206.549 80.6641 206.549 82.9102C206.549 85.0117 207.049 86.0625 208.049 86.0625C209.033 86.0625 209.525 84.9941 209.525 82.8574C209.525 80.6465 209.043 79.541 208.078 79.541ZM214.611 87.1406C213.736 87.1406 213.053 86.7832 212.561 86.0684C212.072 85.3535 211.828 84.3203 211.828 82.9688C211.828 81.4844 212.084 80.3613 212.596 79.5996C213.107 78.8379 213.846 78.457 214.811 78.457C216.658 78.457 217.582 79.8926 217.582 82.7637C217.582 84.1855 217.32 85.2715 216.797 86.0215C216.277 86.7676 215.549 87.1406 214.611 87.1406ZM214.746 79.541C213.727 79.541 213.217 80.6641 213.217 82.9102C213.217 85.0117 213.717 86.0625 214.717 86.0625C215.701 86.0625 216.193 84.9941 216.193 82.8574C216.193 80.6465 215.711 79.541 214.746 79.541Z" fill="#424242"/>
</svg>
