<svg width="457" height="236" viewBox="0 0 457 236" fill="none" xmlns="http://www.w3.org/2000/svg">
<g clip-path="url(#clip0_2_43978)">
<path d="M4.49805 106.503L8.95606 108.798L11.5 108.798L11.5 109.96L8.98047 109.96L4.49805 112.196L4.49805 110.873L7.50098 109.496C7.53678 109.48 7.67188 109.431 7.90625 109.35L7.90625 109.335C7.80208 109.306 7.66699 109.252 7.50098 109.174L4.49805 107.733L4.49805 106.503ZM9.18555 103.104L9.18555 105.771L8.35059 105.771L8.35059 103.104L9.18555 103.104ZM11.5 97.875L11.5 98.9736L10.7188 98.9736L10.7188 98.9932C11.3177 99.3382 11.6172 99.8444 11.6172 100.512C11.6172 101.003 11.4837 101.389 11.2168 101.669C10.9499 101.946 10.5967 102.084 10.1572 102.084C9.21322 102.084 8.66309 101.54 8.50684 100.453L8.29688 98.9687C7.58398 98.9687 7.22754 99.3073 7.22754 99.9844C7.22754 100.58 7.43262 101.117 7.84277 101.596L6.85156 101.596C6.53906 101.068 6.38281 100.46 6.38281 99.7695C6.38281 98.5065 7.00456 97.875 8.24805 97.875L11.5 97.875ZM9.04395 98.9687L9.19043 100.019C9.23275 100.344 9.3125 100.59 9.42969 100.756C9.54362 100.919 9.74544 101 10.0352 101C10.2467 101 10.4209 100.925 10.5576 100.775C10.6911 100.622 10.7578 100.419 10.7578 100.165C10.7578 99.82 10.6374 99.5352 10.3965 99.3105C10.1523 99.0827 9.84635 98.9687 9.47852 98.9687L9.04395 98.9687ZM6.5 92.3086L9.0293 93.9736L11.5 92.3281L11.5 93.6416L9.95215 94.5205C9.85775 94.5758 9.73731 94.6409 9.59082 94.7158L9.59082 94.7353C9.62012 94.7484 9.74056 94.8167 9.95215 94.9404L11.5 95.834L11.5 97.1426L9.04883 95.4434L6.5 97.0547L6.5 95.7363L8.12598 94.8721C8.24642 94.807 8.37012 94.7435 8.49707 94.6816L8.49707 94.667L6.5 93.5488L6.5 92.3086ZM5.45019 90.9072C5.45019 91.0928 5.38997 91.2523 5.26953 91.3857C5.14909 91.5159 4.99609 91.5811 4.81055 91.5811C4.625 91.5811 4.47038 91.5159 4.34668 91.3857C4.22298 91.2523 4.16113 91.0928 4.16113 90.9072C4.16113 90.7152 4.22298 90.5524 4.34668 90.4189C4.47038 90.2855 4.625 90.2187 4.81055 90.2187C4.98633 90.2187 5.13769 90.2855 5.26465 90.4189C5.38835 90.5524 5.45019 90.7152 5.45019 90.9072ZM11.5 90.3457L11.5 91.4785L6.5 91.4785L6.5 90.3457L11.5 90.3457ZM11.3438 89.1738L10.2939 89.1738C10.6162 88.7506 10.7773 88.2835 10.7773 87.7725C10.7773 87.0889 10.5755 86.7471 10.1719 86.7471C10.0579 86.7471 9.96191 86.7764 9.88379 86.835C9.80241 86.8936 9.73079 86.9733 9.66895 87.0742C9.6071 87.1719 9.55176 87.2891 9.50293 87.4258C9.4541 87.5592 9.39876 87.709 9.33691 87.875C9.25553 88.0801 9.16927 88.2656 9.07812 88.4316C8.98698 88.5944 8.88444 88.7311 8.77051 88.8418C8.65332 88.9492 8.52148 89.0306 8.375 89.0859C8.22852 89.1413 8.05762 89.1689 7.8623 89.1689C7.62142 89.1689 7.40983 89.112 7.22754 88.998C7.04199 88.8841 6.88737 88.7311 6.76367 88.5391C6.63672 88.347 6.54232 88.1289 6.48047 87.8848C6.41536 87.6406 6.38281 87.3883 6.38281 87.1279C6.38281 86.6657 6.4528 86.2523 6.59277 85.8877L7.58398 85.8877C7.3431 86.2393 7.22266 86.6429 7.22266 87.0986C7.22266 87.2419 7.2373 87.3721 7.2666 87.4893C7.2959 87.6032 7.33659 87.7008 7.38867 87.7822C7.44075 87.8636 7.50423 87.9271 7.5791 87.9727C7.65072 88.0182 7.73047 88.041 7.81836 88.041C7.92578 88.041 8.01693 88.0182 8.0918 87.9727C8.16667 87.9271 8.2334 87.8603 8.29199 87.7725C8.34733 87.6813 8.39941 87.5739 8.44824 87.4502C8.49381 87.3232 8.54427 87.1784 8.59961 87.0156C8.6875 86.8008 8.77702 86.6087 8.86816 86.4394C8.95931 86.2669 9.06348 86.1204 9.18066 86C9.2946 85.8796 9.42806 85.7868 9.58105 85.7217C9.73079 85.6566 9.90983 85.624 10.1182 85.624C10.3721 85.624 10.5934 85.6826 10.7822 85.7998C10.971 85.917 11.1273 86.0732 11.251 86.2686C11.3747 86.4639 11.4658 86.6901 11.5244 86.9473C11.5863 87.2012 11.6172 87.4697 11.6172 87.7529C11.6172 88.2998 11.526 88.7734 11.3438 89.1738ZM11.4463 79.1543C11.557 79.3756 11.6123 79.667 11.6123 80.0283C11.6123 80.9984 11.1468 81.4834 10.2158 81.4834L7.38867 81.4834L7.38867 82.3184L6.5 82.3184L6.5 81.4834L5.34277 81.4834L5.02051 80.3506L6.5 80.3506L6.5 79.1543L7.38867 79.1543L7.38867 80.3506L9.88867 80.3506C10.1849 80.3506 10.3965 80.2969 10.5234 80.1894C10.6504 80.082 10.7139 79.903 10.7139 79.6523C10.7139 79.4603 10.6585 79.2943 10.5479 79.1543L11.4463 79.1543ZM5.45019 77.6064C5.45019 77.792 5.38997 77.9515 5.26953 78.085C5.14909 78.2152 4.99609 78.2803 4.81055 78.2803C4.625 78.2803 4.47038 78.2152 4.34668 78.085C4.22298 77.9515 4.16113 77.792 4.16113 77.6064C4.16113 77.4144 4.22298 77.2516 4.34668 77.1182C4.47038 76.9847 4.625 76.918 4.81055 76.918C4.98633 76.918 5.13769 76.9847 5.26465 77.1182C5.38835 77.2516 5.45019 77.4144 5.45019 77.6064ZM11.5 77.0449L11.5 78.1777L6.5 78.1777L6.5 77.0449L11.5 77.0449ZM11.4463 72.9238C11.557 73.1452 11.6123 73.4365 11.6123 73.7978C11.6123 74.7679 11.1468 75.2529 10.2158 75.2529L7.38867 75.2529L7.38867 76.0879L6.5 76.0879L6.5 75.2529L5.34277 75.2529L5.02051 74.1201L6.5 74.1201L6.5 72.9238L7.38867 72.9238L7.38867 74.1201L9.88867 74.1201C10.1849 74.1201 10.3965 74.0664 10.5234 73.959C10.6504 73.8516 10.7139 73.6725 10.7139 73.4219C10.7139 73.2298 10.6585 73.0638 10.5479 72.9238L11.4463 72.9238ZM11.5 70.8096L11.5 71.9473L4.09765 71.9473L4.09765 70.8096L11.5 70.8096ZM9.30762 65.0967L9.30762 68.5049C9.76986 68.4919 10.1263 68.3503 10.377 68.0801C10.6276 67.8066 10.7529 67.4323 10.7529 66.957C10.7529 66.4232 10.5934 65.9333 10.2744 65.4873L11.1875 65.4873C11.474 65.943 11.6172 66.5452 11.6172 67.2939C11.6172 68.0296 11.3909 68.6074 10.9385 69.0273C10.4827 69.444 9.8431 69.6523 9.01953 69.6523C8.24154 69.6523 7.6084 69.4228 7.12012 68.9639C6.62858 68.5016 6.38281 67.9287 6.38281 67.2451C6.38281 66.5615 6.60254 66.0325 7.04199 65.6582C7.48144 65.2838 8.0918 65.0967 8.87305 65.0967L9.30762 65.0967ZM8.50683 66.1904C8.09993 66.1937 7.78418 66.2897 7.55957 66.4785C7.3317 66.6673 7.21777 66.9277 7.21777 67.2598C7.21777 67.5853 7.33659 67.862 7.57422 68.0898C7.81185 68.3144 8.12272 68.4528 8.50683 68.5049L8.50683 66.1904Z" fill="#424242"/>
<path d="M27.3872 25H26.4238V17.7402C26.3494 17.8145 26.2398 17.9004 26.0949 17.998C25.9539 18.0918 25.7934 18.1855 25.6132 18.2793C25.437 18.373 25.249 18.4609 25.0493 18.543C24.8535 18.625 24.6616 18.6895 24.4737 18.7363V17.7637C24.6851 17.7051 24.9083 17.627 25.1433 17.5293C25.3822 17.4277 25.6152 17.3164 25.8423 17.1953C26.0734 17.0703 26.2907 16.9414 26.4943 16.8086C26.698 16.6719 26.8742 16.5391 27.023 16.4102H27.3872V25ZM35.6108 20.7637C35.6108 21.4668 35.5462 22.0898 35.417 22.6328C35.2917 23.1758 35.1076 23.6348 34.8648 24.0098C34.6259 24.3809 34.3303 24.6641 33.9778 24.8594C33.6293 25.0508 33.2318 25.1465 32.7854 25.1465C32.3625 25.1465 31.9846 25.0547 31.6517 24.8711C31.3228 24.6836 31.0447 24.4121 30.8176 24.0566C30.5905 23.7012 30.4182 23.2656 30.3007 22.75C30.1832 22.2305 30.1245 21.6367 30.1245 20.9688C30.1245 20.2344 30.1852 19.5859 30.3066 19.0234C30.4319 18.4609 30.614 17.9902 30.8529 17.6113C31.0917 17.2285 31.3874 16.9414 31.7398 16.75C32.0962 16.5547 32.5035 16.457 32.9616 16.457C34.7278 16.457 35.6108 17.8926 35.6108 20.7637ZM34.624 20.8574C34.624 18.4668 34.0542 17.2715 32.9146 17.2715C31.7124 17.2715 31.1113 18.4883 31.1113 20.9219C31.1113 23.1914 31.7007 24.3262 32.8794 24.3262C34.0425 24.3262 34.624 23.1699 34.624 20.8574ZM42.0957 20.7637C42.0957 21.4668 42.0311 22.0898 41.9019 22.6328C41.7766 23.1758 41.5925 23.6348 41.3497 24.0098C41.1109 24.3809 40.8152 24.6641 40.4628 24.8594C40.1142 25.0508 39.7168 25.1465 39.2703 25.1465C38.8474 25.1465 38.4695 25.0547 38.1367 24.8711C37.8077 24.6836 37.5297 24.4121 37.3025 24.0566C37.0754 23.7012 36.9031 23.2656 36.7856 22.75C36.6681 22.2305 36.6094 21.6367 36.6094 20.9688C36.6094 20.2344 36.6701 19.5859 36.7915 19.0234C36.9168 18.4609 37.0989 17.9902 37.3378 17.6113C37.5767 17.2285 37.8723 16.9414 38.2248 16.75C38.5811 16.5547 38.9884 16.457 39.4466 16.457C41.2127 16.457 42.0957 17.8926 42.0957 20.7637ZM41.1089 20.8574C41.1089 18.4668 40.5391 17.2715 39.3996 17.2715C38.1973 17.2715 37.5962 18.4883 37.5962 20.9219C37.5962 23.1914 38.1856 24.3262 39.3643 24.3262C40.5274 24.3262 41.1089 23.1699 41.1089 20.8574ZM49.5558 25H48.1812L44.927 21.1562C44.8056 21.0117 44.7312 20.9141 44.7038 20.8633H44.6803V25H43.6935V16.5977H44.6803V20.5469H44.7038C44.7586 20.4609 44.833 20.3652 44.927 20.2598L48.0755 16.5977H49.3032L45.6906 20.6289L49.5558 25Z" fill="#424242"/>
<path d="M30.1479 51.0562C30.1479 50.8335 30.1832 50.6108 30.2537 50.3882C30.3242 50.1616 30.424 49.9507 30.5532 49.7554C30.6864 49.5601 30.8489 49.3823 31.0408 49.2222C31.2366 49.062 31.4578 48.9351 31.7046 48.8413C31.3404 48.6382 31.0506 48.3784 30.8352 48.062C30.6198 47.7417 30.5121 47.3882 30.5121 47.0015C30.5121 46.6929 30.5709 46.4077 30.6883 46.146C30.8097 45.8843 30.9762 45.6577 31.1876 45.4663C31.3991 45.2749 31.6497 45.1265 31.9395 45.021C32.2293 44.9116 32.5426 44.8569 32.8794 44.8569C33.22 44.8569 33.5353 44.9116 33.8251 45.021C34.1149 45.1304 34.3655 45.2808 34.5769 45.4722C34.7884 45.6636 34.9529 45.8901 35.0704 46.1519C35.1878 46.4136 35.2466 46.6968 35.2466 47.0015C35.2466 47.3882 35.1389 47.7417 34.9235 48.062C34.7081 48.3784 34.4223 48.6382 34.0659 48.8413C34.3087 48.9351 34.526 49.062 34.7179 49.2222C34.9098 49.3823 35.0704 49.5601 35.1996 49.7554C35.3327 49.9507 35.4346 50.1616 35.505 50.3882C35.5755 50.6108 35.6108 50.8335 35.6108 51.0562C35.6108 51.4233 35.5442 51.7593 35.4111 52.064C35.2779 52.3687 35.0899 52.6304 34.8472 52.8491C34.6083 53.064 34.3204 53.2319 33.9837 53.353C33.6508 53.4741 33.2827 53.5347 32.8794 53.5347C32.4799 53.5347 32.1138 53.4741 31.7809 53.353C31.4481 53.2319 31.1602 53.064 30.9174 52.8491C30.6746 52.6304 30.4847 52.3687 30.3477 52.064C30.2145 51.7593 30.1479 51.4233 30.1479 51.0562ZM31.1935 50.9741C31.1935 51.2358 31.2327 51.4722 31.311 51.6831C31.3932 51.894 31.5068 52.0737 31.6517 52.2222C31.8005 52.3706 31.9787 52.4858 32.1862 52.5679C32.3977 52.646 32.6307 52.6851 32.8852 52.6851C33.1319 52.6851 33.3591 52.644 33.5666 52.562C33.7742 52.48 33.9523 52.3647 34.1012 52.2163C34.2539 52.0679 34.3714 51.8882 34.4536 51.6772C34.5397 51.4663 34.5828 51.2319 34.5828 50.9741C34.5828 50.7397 34.5417 50.521 34.4595 50.3179C34.3811 50.1108 34.2676 49.9292 34.1188 49.7729C33.97 49.6167 33.7918 49.4937 33.5842 49.4038C33.3767 49.314 33.1437 49.269 32.8852 49.269C32.6424 49.269 32.4173 49.312 32.2097 49.3979C32.0061 49.48 31.8279 49.5972 31.6752 49.7495C31.5264 49.8979 31.4089 50.0776 31.3227 50.2886C31.2366 50.4956 31.1935 50.7241 31.1935 50.9741ZM31.4931 47.0776C31.4931 47.2769 31.5283 47.4624 31.5988 47.6343C31.6732 47.8022 31.7731 47.9507 31.8984 48.0796C32.0276 48.2046 32.1764 48.3042 32.3448 48.3784C32.5132 48.4487 32.6933 48.4839 32.8852 48.4839C33.0771 48.4839 33.2573 48.4468 33.4256 48.3726C33.5979 48.2983 33.7468 48.1987 33.8721 48.0737C33.9974 47.9448 34.0972 47.7964 34.1716 47.6284C34.246 47.4565 34.2832 47.2729 34.2832 47.0776C34.2832 46.8745 34.246 46.687 34.1716 46.5151C34.1012 46.3433 34.0033 46.1948 33.8779 46.0698C33.7526 45.9448 33.6038 45.8472 33.4315 45.7769C33.2631 45.7026 33.081 45.6655 32.8852 45.6655C32.6777 45.6655 32.4878 45.7026 32.3154 45.7769C32.1471 45.8511 32.0002 45.9526 31.8749 46.0815C31.7535 46.2065 31.6595 46.355 31.5929 46.5269C31.5264 46.6987 31.4931 46.8823 31.4931 47.0776ZM42.0957 49.1636C42.0957 49.8667 42.0311 50.4897 41.9019 51.0327C41.7765 51.5757 41.5925 52.0347 41.3497 52.4097C41.1108 52.7808 40.8152 53.064 40.4627 53.2593C40.1142 53.4507 39.7167 53.5464 39.2703 53.5464C38.8474 53.5464 38.4695 53.4546 38.1366 53.271C37.8077 53.0835 37.5296 52.812 37.3025 52.4565C37.0754 52.1011 36.9031 51.6655 36.7856 51.1499C36.6681 50.6304 36.6094 50.0366 36.6094 49.3687C36.6094 48.6343 36.6701 47.9858 36.7915 47.4233C36.9168 46.8608 37.0989 46.3901 37.3377 46.0112C37.5766 45.6284 37.8723 45.3413 38.2247 45.1499C38.5811 44.9546 38.9883 44.8569 39.4465 44.8569C41.2126 44.8569 42.0957 46.2925 42.0957 49.1636ZM41.1089 49.2573C41.1089 46.8667 40.5391 45.6714 39.3995 45.6714C38.1973 45.6714 37.5962 46.8882 37.5962 49.3218C37.5962 51.5913 38.1856 52.7261 39.3643 52.7261C40.5273 52.7261 41.1089 51.5698 41.1089 49.2573ZM49.5557 53.3999H48.1812L44.927 49.5562C44.8056 49.4116 44.7312 49.314 44.7038 49.2632H44.6803V53.3999H43.6934V44.9976H44.6803V48.9468H44.7038C44.7586 48.8608 44.833 48.7651 44.927 48.6597L48.0755 44.9976H49.3031L45.6906 49.0288L49.5557 53.3999Z" fill="#424242"/>
<path d="M35.6225 79.134C35.6225 79.5442 35.556 79.9211 35.4228 80.2649C35.2897 80.6086 35.1056 80.9055 34.8706 81.1555C34.6357 81.4055 34.3557 81.6008 34.0307 81.7415C33.7056 81.8782 33.3532 81.9465 32.9733 81.9465C32.5504 81.9465 32.1706 81.8586 31.8338 81.6829C31.5009 81.5071 31.217 81.2551 30.982 80.927C30.751 80.595 30.5748 80.1907 30.4534 79.7141C30.332 79.2375 30.2713 78.7004 30.2713 78.1028C30.2713 77.3723 30.3516 76.7102 30.5121 76.1165C30.6766 75.5188 30.9076 75.009 31.2053 74.5872C31.5068 74.1614 31.869 73.8333 32.292 73.6028C32.7149 73.3723 33.1868 73.2571 33.7076 73.2571C34.2872 73.2571 34.7532 73.3372 35.1056 73.4973V74.4055C34.6709 74.1829 34.2128 74.0715 33.7311 74.0715C33.3552 74.0715 33.0164 74.1555 32.7149 74.3235C32.4133 74.4915 32.1549 74.7297 31.9395 75.0383C31.7241 75.343 31.5577 75.7122 31.4402 76.1458C31.3267 76.5793 31.2699 77.0618 31.2699 77.593H31.2934C31.6811 76.8938 32.3213 76.5442 33.2142 76.5442C33.5823 76.5442 33.9132 76.6067 34.2069 76.7317C34.5045 76.8567 34.7571 77.0344 34.9646 77.2649C35.1761 77.4915 35.3386 77.7629 35.4522 78.0793C35.5657 78.3958 35.6225 78.7473 35.6225 79.134ZM34.6357 79.2571C34.6357 78.9641 34.5985 78.7004 34.5241 78.4661C34.4497 78.2317 34.342 78.0325 34.201 77.8684C34.064 77.7043 33.8936 77.5793 33.69 77.4934C33.4863 77.4036 33.2553 77.3586 32.9968 77.3586C32.758 77.3586 32.5367 77.4036 32.3331 77.4934C32.1294 77.5833 31.9532 77.7063 31.8044 77.8625C31.6556 78.0149 31.5381 78.1946 31.452 78.4016C31.3697 78.6047 31.3286 78.8215 31.3286 79.052C31.3286 79.3411 31.3697 79.6125 31.452 79.8665C31.5342 80.1165 31.6497 80.3352 31.7985 80.5227C31.9473 80.7102 32.1236 80.8586 32.3272 80.968C32.5347 81.0735 32.7638 81.1262 33.0145 81.1262C33.2573 81.1262 33.4785 81.0813 33.6782 80.9915C33.8779 80.8977 34.0483 80.7688 34.1893 80.6047C34.3302 80.4407 34.4399 80.2454 34.5182 80.0188C34.5965 79.7883 34.6357 79.5344 34.6357 79.2571ZM42.0957 77.5637C42.0957 78.2668 42.0311 78.8899 41.9019 79.4329C41.7765 79.9758 41.5925 80.4348 41.3497 80.8098C41.1108 81.1809 40.8152 81.4641 40.4627 81.6594C40.1142 81.8508 39.7167 81.9465 39.2703 81.9465C38.8474 81.9465 38.4695 81.8547 38.1366 81.6711C37.8077 81.4836 37.5296 81.2122 37.3025 80.8567C37.0754 80.5012 36.9031 80.0657 36.7856 79.55C36.6681 79.0305 36.6094 78.4368 36.6094 77.7688C36.6094 77.0344 36.6701 76.386 36.7915 75.8235C36.9168 75.261 37.0989 74.7903 37.3377 74.4114C37.5766 74.0286 37.8723 73.7415 38.2247 73.55C38.5811 73.3547 38.9883 73.2571 39.4465 73.2571C41.2126 73.2571 42.0957 74.6926 42.0957 77.5637ZM41.1089 77.6575C41.1089 75.2668 40.5391 74.0715 39.3995 74.0715C38.1973 74.0715 37.5962 75.2883 37.5962 77.7219C37.5962 79.9915 38.1856 81.1262 39.3643 81.1262C40.5273 81.1262 41.1089 79.97 41.1089 77.6575ZM49.5557 81.8H48.1812L44.927 77.9563C44.8056 77.8118 44.7312 77.7141 44.7038 77.6633H44.6803V81.8H43.6934V73.3977H44.6803V77.3469H44.7038C44.7586 77.261 44.833 77.1653 44.927 77.0598L48.0755 73.3977H49.3031L45.6906 77.429L49.5557 81.8Z" fill="#424242"/>
<path d="M34.6122 101.798V107.346H35.693V108.225H34.6122V110.2H33.6606V108.225H29.7015V107.393C30.0696 106.979 30.4416 106.538 30.8176 106.069C31.1935 105.596 31.5518 105.118 31.8925 104.634C32.2371 104.149 32.5543 103.667 32.8441 103.186C33.1378 102.702 33.3845 102.239 33.5842 101.798H34.6122ZM30.7882 107.346H33.6606V103.233C33.3669 103.745 33.0889 104.202 32.8265 104.604C32.5641 105.007 32.3135 105.372 32.0746 105.7C31.8397 106.028 31.6145 106.325 31.3991 106.591C31.1837 106.856 30.9801 107.108 30.7882 107.346ZM42.0957 105.964C42.0957 106.667 42.0311 107.29 41.9019 107.833C41.7765 108.376 41.5925 108.835 41.3497 109.21C41.1108 109.581 40.8152 109.864 40.4627 110.059C40.1142 110.251 39.7167 110.346 39.2703 110.346C38.8474 110.346 38.4695 110.255 38.1366 110.071C37.8077 109.884 37.5296 109.612 37.3025 109.257C37.0754 108.901 36.9031 108.466 36.7856 107.95C36.6681 107.43 36.6094 106.837 36.6094 106.169C36.6094 105.434 36.6701 104.786 36.7915 104.223C36.9168 103.661 37.0989 103.19 37.3377 102.811C37.5766 102.428 37.8723 102.141 38.2247 101.95C38.5811 101.755 38.9883 101.657 39.4465 101.657C41.2126 101.657 42.0957 103.093 42.0957 105.964ZM41.1089 106.057C41.1089 103.667 40.5391 102.471 39.3995 102.471C38.1973 102.471 37.5962 103.688 37.5962 106.122C37.5962 108.391 38.1856 109.526 39.3643 109.526C40.5273 109.526 41.1089 108.37 41.1089 106.057ZM49.5557 110.2H48.1812L44.927 106.356C44.8056 106.212 44.7312 106.114 44.7038 106.063H44.6803V110.2H43.6934V101.798H44.6803V105.747H44.7038C44.7586 105.661 44.833 105.565 44.927 105.46L48.0755 101.798H49.3031L45.6906 105.829L49.5557 110.2Z" fill="#424242"/>
<path d="M34.154 132.401C34.154 132.143 34.1129 131.918 34.0307 131.727C33.9523 131.536 33.8427 131.377 33.7017 131.252C33.5647 131.124 33.4021 131.028 33.2142 130.965C33.0262 130.903 32.8226 130.872 32.6033 130.872C32.4153 130.872 32.2313 130.897 32.0511 130.948C31.871 130.999 31.6948 131.069 31.5225 131.159C31.3541 131.249 31.1896 131.356 31.029 131.481C30.8724 131.606 30.7255 131.745 30.5885 131.897V130.866C30.8587 130.604 31.1602 130.405 31.4931 130.268C31.8299 130.127 32.2391 130.057 32.7208 130.057C33.0654 130.057 33.3845 130.108 33.6782 130.209C33.9719 130.307 34.2265 130.452 34.4418 130.643C34.6572 130.834 34.8256 131.071 34.947 131.352C35.0723 131.633 35.135 131.956 35.135 132.319C35.135 132.651 35.0958 132.952 35.0175 133.221C34.9431 133.491 34.8276 133.745 34.6709 133.983C34.5182 134.221 34.3244 134.45 34.0894 134.668C33.8544 134.887 33.5784 135.11 33.2612 135.336C32.8656 135.618 32.5387 135.858 32.2802 136.057C32.0257 136.256 31.822 136.444 31.6693 136.62C31.5205 136.792 31.4148 136.965 31.3521 137.141C31.2934 137.313 31.264 137.512 31.264 137.739H35.4581V138.6H30.2595V138.184C30.2595 137.825 30.2987 137.508 30.377 137.235C30.4553 136.961 30.5846 136.702 30.7647 136.456C30.9448 136.209 31.1798 135.963 31.4696 135.717C31.7633 135.471 32.1216 135.194 32.5445 134.885C32.85 134.667 33.1045 134.458 33.3082 134.258C33.5157 134.059 33.6821 133.86 33.8075 133.661C33.9328 133.461 34.0209 133.26 34.0718 133.057C34.1266 132.85 34.154 132.631 34.154 132.401ZM42.0957 134.364C42.0957 135.067 42.0311 135.69 41.9019 136.233C41.7765 136.776 41.5925 137.235 41.3497 137.61C41.1108 137.981 40.8152 138.264 40.4627 138.459C40.1142 138.651 39.7167 138.747 39.2703 138.747C38.8474 138.747 38.4695 138.655 38.1366 138.471C37.8077 138.284 37.5296 138.012 37.3025 137.657C37.0754 137.301 36.9031 136.866 36.7856 136.35C36.6681 135.831 36.6094 135.237 36.6094 134.569C36.6094 133.834 36.6701 133.186 36.7915 132.624C36.9168 132.061 37.0989 131.59 37.3377 131.211C37.5766 130.829 37.8723 130.542 38.2247 130.35C38.5811 130.155 38.9883 130.057 39.4465 130.057C41.2126 130.057 42.0957 131.493 42.0957 134.364ZM41.1089 134.458C41.1089 132.067 40.5391 130.872 39.3995 130.872C38.1973 130.872 37.5962 132.088 37.5962 134.522C37.5962 136.792 38.1856 137.926 39.3643 137.926C40.5273 137.926 41.1089 136.77 41.1089 134.458ZM49.5557 138.6H48.1812L44.927 134.756C44.8056 134.612 44.7312 134.514 44.7038 134.463H44.6803V138.6H43.6934V130.198H44.6803V134.147H44.7038C44.7586 134.061 44.833 133.965 44.927 133.86L48.0755 130.198H49.3031L45.6906 134.229L49.5557 138.6Z" fill="#424242"/>
<path d="M49.0741 162.764C49.0741 163.467 49.0095 164.09 48.8803 164.633C48.755 165.176 48.5709 165.635 48.3281 166.01C48.0893 166.381 47.7936 166.664 47.4412 166.859C47.0926 167.051 46.6952 167.146 46.2487 167.146C45.8258 167.146 45.4479 167.055 45.115 166.871C44.7861 166.684 44.5081 166.412 44.2809 166.057C44.0538 165.701 43.8815 165.266 43.764 164.75C43.6465 164.23 43.5878 163.637 43.5878 162.969C43.5878 162.234 43.6485 161.586 43.7699 161.023C43.8952 160.461 44.0773 159.99 44.3162 159.611C44.555 159.229 44.8507 158.941 45.2031 158.75C45.5595 158.555 45.9668 158.457 46.4249 158.457C48.1911 158.457 49.0741 159.893 49.0741 162.764ZM48.0873 162.857C48.0873 160.467 47.5175 159.271 46.378 159.271C45.1757 159.271 44.5746 160.488 44.5746 162.922C44.5746 165.191 45.164 166.326 46.3427 166.326C47.5058 166.326 48.0873 165.17 48.0873 162.857Z" fill="#424242"/>
<path d="M359.5 20H53.5675V21.0001H359.5V20Z" fill="#E0E0E0"/>
<path d="M359.5 48.6001H53.5675V49.6002H359.5V48.6001Z" fill="#E0E0E0"/>
<path d="M359.5 77.2H53.5675V78.2H359.5V77.2Z" fill="#E0E0E0"/>
<path d="M359.5 105.8H53.5675V106.8H359.5V105.8Z" fill="#E0E0E0"/>
<path d="M359.5 134.4H53.5675V135.4H359.5V134.4Z" fill="#E0E0E0"/>
<path d="M359.5 163H53.5675V164H359.5V163Z" fill="#E0E0E0"/>
<rect x="69.5675" y="164" width="1" height="6" fill="#E0E0E0"/>
<rect x="124.154" y="164" width="1" height="6" fill="#E0E0E0"/>
<rect x="178.74" y="164" width="1" height="6" fill="#E0E0E0"/>
<rect x="233.327" y="164" width="1" height="6" fill="#E0E0E0"/>
<rect x="287.914" y="164" width="1" height="6" fill="#E0E0E0"/>
<rect x="342.5" y="164" width="1" height="6" fill="#E0E0E0"/>
<path d="M64.2238 179.988C64.2238 180.984 64.0128 181.76 63.5909 182.314C63.1691 182.865 62.6046 183.141 61.8976 183.141C61.5695 183.141 61.2999 183.094 61.089 183V182.027C61.2999 182.18 61.5734 182.256 61.9093 182.256C62.796 182.256 63.2394 181.504 63.2394 180V174.598H64.2238V179.988ZM70.5284 183H69.5675V182.062H69.5441C69.1261 182.781 68.5109 183.141 67.6984 183.141C67.1007 183.141 66.632 182.982 66.2921 182.666C65.9562 182.35 65.7882 181.93 65.7882 181.406C65.7882 180.285 66.4484 179.633 67.7687 179.449L69.5675 179.197C69.5675 178.178 69.1554 177.668 68.3312 177.668C67.6085 177.668 66.9562 177.914 66.3741 178.406V177.422C66.964 177.047 67.6437 176.859 68.4132 176.859C69.8234 176.859 70.5284 177.605 70.5284 179.098V183ZM69.5675 179.965L68.1202 180.164C67.6749 180.227 67.339 180.338 67.1124 180.498C66.8859 180.654 66.7726 180.934 66.7726 181.336C66.7726 181.629 66.8761 181.869 67.0831 182.057C67.2941 182.24 67.5734 182.332 67.921 182.332C68.3976 182.332 68.7902 182.166 69.0988 181.834C69.4113 181.498 69.5675 181.074 69.5675 180.562V179.965ZM77.3195 183H76.3585V179.578C76.3585 178.305 75.8937 177.668 74.964 177.668C74.4835 177.668 74.0851 177.85 73.7687 178.213C73.4562 178.572 73.2999 179.027 73.2999 179.578V183H72.339V177H73.2999V177.996H73.3234C73.7765 177.238 74.4327 176.859 75.2921 176.859C75.9484 176.859 76.4503 177.072 76.798 177.498C77.1456 177.92 77.3195 178.531 77.3195 179.332V183Z" fill="#424242"/>
<path d="M120.124 175.488H116.842V178.395H119.877V179.279H116.842V183H115.858V174.598H120.124V175.488ZM126.411 180.24H122.174C122.19 180.908 122.37 181.424 122.713 181.787C123.057 182.15 123.53 182.332 124.131 182.332C124.807 182.332 125.428 182.109 125.995 181.664V182.566C125.467 182.949 124.77 183.141 123.903 183.141C123.055 183.141 122.389 182.869 121.905 182.326C121.42 181.779 121.178 181.012 121.178 180.023C121.178 179.09 121.442 178.33 121.969 177.744C122.5 177.154 123.159 176.859 123.944 176.859C124.729 176.859 125.336 177.113 125.766 177.621C126.196 178.129 126.411 178.834 126.411 179.736V180.24ZM125.426 179.426C125.422 178.871 125.288 178.439 125.022 178.131C124.76 177.822 124.395 177.668 123.926 177.668C123.473 177.668 123.088 177.83 122.772 178.154C122.456 178.479 122.26 178.902 122.186 179.426H125.426ZM128.854 182.133H128.831V183H127.87V174.117H128.831V178.055H128.854C129.327 177.258 130.018 176.859 130.928 176.859C131.698 176.859 132.299 177.129 132.733 177.668C133.17 178.203 133.389 178.922 133.389 179.824C133.389 180.828 133.145 181.633 132.657 182.238C132.168 182.84 131.5 183.141 130.653 183.141C129.86 183.141 129.26 182.805 128.854 182.133ZM128.831 179.713V180.551C128.831 181.047 128.991 181.469 129.311 181.816C129.635 182.16 130.045 182.332 130.542 182.332C131.124 182.332 131.579 182.109 131.907 181.664C132.239 181.219 132.405 180.6 132.405 179.807C132.405 179.139 132.25 178.615 131.942 178.236C131.633 177.857 131.215 177.668 130.688 177.668C130.129 177.668 129.68 177.863 129.34 178.254C129 178.641 128.831 179.127 128.831 179.713Z" fill="#424242"/>
<path d="M178.279 183H177.301V177.363C177.301 176.918 177.328 176.373 177.383 175.729H177.359C177.266 176.107 177.182 176.379 177.107 176.543L174.236 183H173.756L170.891 176.59C170.808 176.402 170.724 176.115 170.639 175.729H170.615C170.646 176.064 170.662 176.613 170.662 177.375V183H169.713V174.598H171.014L173.592 180.457C173.791 180.906 173.92 181.242 173.978 181.465H174.014C174.182 181.004 174.316 180.66 174.418 180.434L177.049 174.598H178.279V183ZM184.66 183H183.699V182.062H183.676C183.258 182.781 182.642 183.141 181.83 183.141C181.232 183.141 180.764 182.982 180.424 182.666C180.088 182.35 179.92 181.93 179.92 181.406C179.92 180.285 180.58 179.633 181.9 179.449L183.699 179.197C183.699 178.178 183.287 177.668 182.463 177.668C181.74 177.668 181.088 177.914 180.506 178.406V177.422C181.096 177.047 181.775 176.859 182.545 176.859C183.955 176.859 184.66 177.605 184.66 179.098V183ZM183.699 179.965L182.252 180.164C181.807 180.227 181.471 180.338 181.244 180.498C181.017 180.654 180.904 180.934 180.904 181.336C180.904 181.629 181.008 181.869 181.215 182.057C181.426 182.24 181.705 182.332 182.053 182.332C182.529 182.332 182.922 182.166 183.23 181.834C183.543 181.498 183.699 181.074 183.699 180.562V179.965ZM189.599 177.973C189.432 177.844 189.189 177.779 188.873 177.779C188.463 177.779 188.119 177.973 187.842 178.359C187.568 178.746 187.432 179.273 187.432 179.941V183H186.471V177H187.432V178.236H187.455C187.592 177.814 187.801 177.486 188.082 177.252C188.363 177.014 188.678 176.895 189.025 176.895C189.275 176.895 189.467 176.922 189.599 176.977V177.973Z" fill="#424242"/>
<path d="M232.046 183H230.956L230.066 180.645H226.503L225.665 183H224.57L227.792 174.598H228.812L232.046 183ZM229.743 179.76L228.425 176.18C228.382 176.062 228.339 175.875 228.296 175.617H228.273C228.234 175.855 228.189 176.043 228.138 176.18L226.831 179.76H229.743ZM234.144 182.133H234.12V185.76H233.159V177H234.12V178.055H234.144C234.616 177.258 235.308 176.859 236.218 176.859C236.991 176.859 237.595 177.129 238.029 177.668C238.462 178.203 238.679 178.922 238.679 179.824C238.679 180.828 238.435 181.633 237.947 182.238C237.458 182.84 236.79 183.141 235.943 183.141C235.165 183.141 234.566 182.805 234.144 182.133ZM234.12 179.713V180.551C234.12 181.047 234.281 181.469 234.601 181.816C234.925 182.16 235.335 182.332 235.831 182.332C236.413 182.332 236.868 182.109 237.197 181.664C237.529 181.219 237.695 180.6 237.695 179.807C237.695 179.139 237.54 178.615 237.232 178.236C236.923 177.857 236.505 177.668 235.978 177.668C235.419 177.668 234.97 177.863 234.63 178.254C234.29 178.641 234.12 179.127 234.12 179.713ZM243.343 177.973C243.175 177.844 242.933 177.779 242.616 177.779C242.206 177.779 241.863 177.973 241.585 178.359C241.312 178.746 241.175 179.273 241.175 179.941V183H240.214V177H241.175V178.236H241.198C241.335 177.814 241.544 177.486 241.825 177.252C242.107 177.014 242.421 176.895 242.769 176.895C243.019 176.895 243.21 176.922 243.343 176.977V177.973Z" fill="#424242"/>
<path d="M287.032 183H286.053V177.363C286.053 176.918 286.081 176.373 286.135 175.729H286.112C286.018 176.107 285.934 176.379 285.86 176.543L282.989 183H282.508L279.643 176.59C279.561 176.402 279.477 176.115 279.391 175.729H279.368C279.399 176.064 279.415 176.613 279.415 177.375V183H278.465V174.598H279.766L282.344 180.457C282.544 180.906 282.672 181.242 282.731 181.465H282.766C282.934 181.004 283.069 180.66 283.171 180.434L285.801 174.598H287.032V183ZM293.413 183H292.452V182.062H292.428C292.01 182.781 291.395 183.141 290.583 183.141C289.985 183.141 289.516 182.982 289.176 182.666C288.84 182.35 288.672 181.93 288.672 181.406C288.672 180.285 289.333 179.633 290.653 179.449L292.452 179.197C292.452 178.178 292.04 177.668 291.215 177.668C290.493 177.668 289.84 177.914 289.258 178.406V177.422C289.848 177.047 290.528 176.859 291.297 176.859C292.708 176.859 293.413 177.605 293.413 179.098V183ZM292.452 179.965L291.005 180.164C290.559 180.227 290.223 180.338 289.997 180.498C289.77 180.654 289.657 180.934 289.657 181.336C289.657 181.629 289.76 181.869 289.967 182.057C290.178 182.24 290.458 182.332 290.805 182.332C291.282 182.332 291.674 182.166 291.983 181.834C292.296 181.498 292.452 181.074 292.452 180.562V179.965ZM299.999 177L297.239 183.961C296.747 185.203 296.055 185.824 295.165 185.824C294.915 185.824 294.706 185.799 294.538 185.748V184.887C294.745 184.957 294.934 184.992 295.106 184.992C295.59 184.992 295.954 184.703 296.196 184.125L296.676 182.988L294.333 177H295.399L297.022 181.617C297.042 181.676 297.083 181.828 297.145 182.074H297.18C297.2 181.98 297.239 181.832 297.297 181.629L299.003 177H299.999Z" fill="#424242"/>
<path d="M337.811 179.988C337.811 180.984 337.6 181.76 337.178 182.314C336.756 182.865 336.191 183.141 335.484 183.141C335.156 183.141 334.887 183.094 334.676 183V182.027C334.887 182.18 335.16 182.256 335.496 182.256C336.383 182.256 336.826 181.504 336.826 180V174.598H337.811V179.988ZM344.672 183H343.711V182.051H343.688C343.289 182.777 342.672 183.141 341.836 183.141C340.406 183.141 339.691 182.289 339.691 180.586V177H340.646V180.434C340.646 181.699 341.131 182.332 342.1 182.332C342.568 182.332 342.953 182.16 343.254 181.816C343.559 181.469 343.711 181.016 343.711 180.457V177H344.672V183ZM351.598 183H350.637V179.578C350.637 178.305 350.172 177.668 349.242 177.668C348.762 177.668 348.363 177.85 348.047 178.213C347.734 178.572 347.578 179.027 347.578 179.578V183H346.617V177H347.578V177.996H347.602C348.055 177.238 348.711 176.859 349.57 176.859C350.227 176.859 350.729 177.072 351.076 177.498C351.424 177.92 351.598 178.531 351.598 179.332V183Z" fill="#424242"/>
<path d="M188.677 205H187.286L185.85 202.432C185.808 202.354 185.761 202.243 185.709 202.1H185.689C185.66 202.171 185.611 202.282 185.543 202.432L184.063 205H182.662L184.957 201.479L182.847 197.998H184.268L185.533 200.361C185.614 200.518 185.687 200.674 185.753 200.83H185.767C185.862 200.625 185.943 200.462 186.011 200.342L187.325 197.998H188.633L186.475 201.47L188.677 205ZM192.139 202.686H189.473V201.851H192.139V202.686ZM197.369 205H196.27V204.219H196.251C195.905 204.818 195.399 205.117 194.732 205.117C194.24 205.117 193.855 204.984 193.575 204.717C193.298 204.45 193.16 204.097 193.16 203.657C193.16 202.713 193.703 202.163 194.791 202.007L196.275 201.797C196.275 201.084 195.936 200.728 195.259 200.728C194.664 200.728 194.127 200.933 193.648 201.343V200.352C194.175 200.039 194.784 199.883 195.474 199.883C196.737 199.883 197.369 200.505 197.369 201.748V205ZM196.275 202.544L195.225 202.69C194.9 202.733 194.654 202.813 194.488 202.93C194.325 203.044 194.244 203.245 194.244 203.535C194.244 203.747 194.319 203.921 194.468 204.058C194.621 204.191 194.825 204.258 195.079 204.258C195.424 204.258 195.709 204.137 195.933 203.896C196.161 203.652 196.275 203.346 196.275 202.979V202.544ZM202.935 200L201.27 202.529L202.916 205H201.602L200.723 203.452C200.668 203.358 200.603 203.237 200.528 203.091H200.508C200.495 203.12 200.427 203.241 200.303 203.452L199.41 205H198.101L199.8 202.549L198.189 200H199.507L200.372 201.626C200.437 201.746 200.5 201.87 200.562 201.997H200.577L201.695 200H202.935ZM204.336 198.95C204.151 198.95 203.991 198.89 203.858 198.77C203.728 198.649 203.663 198.496 203.663 198.311C203.663 198.125 203.728 197.97 203.858 197.847C203.991 197.723 204.151 197.661 204.336 197.661C204.529 197.661 204.691 197.723 204.825 197.847C204.958 197.97 205.025 198.125 205.025 198.311C205.025 198.486 204.958 198.638 204.825 198.765C204.691 198.888 204.529 198.95 204.336 198.95ZM204.898 205H203.765V200H204.898V205ZM206.07 204.844V203.794C206.493 204.116 206.96 204.277 207.471 204.277C208.155 204.277 208.497 204.076 208.497 203.672C208.497 203.558 208.467 203.462 208.409 203.384C208.35 203.302 208.27 203.231 208.169 203.169C208.072 203.107 207.955 203.052 207.818 203.003C207.684 202.954 207.535 202.899 207.369 202.837C207.164 202.756 206.978 202.669 206.812 202.578C206.649 202.487 206.513 202.384 206.402 202.271C206.294 202.153 206.213 202.021 206.158 201.875C206.102 201.729 206.075 201.558 206.075 201.362C206.075 201.121 206.132 200.91 206.246 200.728C206.36 200.542 206.513 200.387 206.705 200.264C206.897 200.137 207.115 200.042 207.359 199.98C207.603 199.915 207.855 199.883 208.116 199.883C208.578 199.883 208.991 199.953 209.356 200.093V201.084C209.004 200.843 208.601 200.723 208.145 200.723C208.002 200.723 207.872 200.737 207.754 200.767C207.641 200.796 207.543 200.837 207.461 200.889C207.38 200.941 207.317 201.004 207.271 201.079C207.225 201.151 207.203 201.23 207.203 201.318C207.203 201.426 207.225 201.517 207.271 201.592C207.317 201.667 207.383 201.733 207.471 201.792C207.562 201.847 207.67 201.899 207.794 201.948C207.92 201.994 208.065 202.044 208.228 202.1C208.443 202.188 208.635 202.277 208.804 202.368C208.977 202.459 209.123 202.563 209.244 202.681C209.364 202.795 209.457 202.928 209.522 203.081C209.587 203.231 209.62 203.41 209.62 203.618C209.62 203.872 209.561 204.093 209.444 204.282C209.327 204.471 209.17 204.627 208.975 204.751C208.78 204.875 208.554 204.966 208.296 205.024C208.043 205.086 207.774 205.117 207.491 205.117C206.944 205.117 206.47 205.026 206.07 204.844ZM216.089 204.946C215.868 205.057 215.577 205.112 215.215 205.112C214.245 205.112 213.76 204.647 213.76 203.716V200.889H212.925V200H213.76V198.843L214.893 198.521V200H216.089V200.889H214.893V203.389C214.893 203.685 214.947 203.896 215.054 204.023C215.162 204.15 215.341 204.214 215.591 204.214C215.783 204.214 215.949 204.159 216.089 204.048V204.946ZM217.637 198.95C217.452 198.95 217.292 198.89 217.159 198.77C217.029 198.649 216.963 198.496 216.963 198.311C216.963 198.125 217.029 197.97 217.159 197.847C217.292 197.723 217.452 197.661 217.637 197.661C217.829 197.661 217.992 197.723 218.126 197.847C218.259 197.97 218.326 198.125 218.326 198.311C218.326 198.486 218.259 198.638 218.126 198.765C217.992 198.888 217.829 198.95 217.637 198.95ZM218.199 205H217.066V200H218.199V205ZM222.32 204.946C222.099 205.057 221.807 205.112 221.446 205.112C220.476 205.112 219.991 204.647 219.991 203.716V200.889H219.156V200H219.991V198.843L221.124 198.521V200H222.32V200.889H221.124V203.389C221.124 203.685 221.177 203.896 221.285 204.023C221.392 204.15 221.571 204.214 221.822 204.214C222.014 204.214 222.18 204.159 222.32 204.048V204.946ZM224.434 205H223.296V197.598H224.434V205ZM230.147 202.808H226.739C226.752 203.27 226.893 203.626 227.164 203.877C227.437 204.128 227.811 204.253 228.287 204.253C228.821 204.253 229.31 204.093 229.756 203.774V204.688C229.301 204.974 228.698 205.117 227.95 205.117C227.214 205.117 226.636 204.891 226.216 204.438C225.8 203.983 225.591 203.343 225.591 202.52C225.591 201.742 225.821 201.108 226.28 200.62C226.742 200.129 227.315 199.883 227.999 199.883C228.682 199.883 229.211 200.103 229.586 200.542C229.96 200.981 230.147 201.592 230.147 202.373V202.808ZM229.053 202.007C229.05 201.6 228.954 201.284 228.765 201.06C228.576 200.832 228.316 200.718 227.984 200.718C227.658 200.718 227.382 200.837 227.154 201.074C226.929 201.312 226.791 201.623 226.739 202.007H229.053Z" fill="#424242"/>
</g>
<path d="M53.4988 223.623C53.4988 223.278 53.7786 222.998 54.1239 222.998H62.8753C63.2205 222.998 63.5004 223.278 63.5004 223.623V232.375C63.5004 232.72 63.2205 233 62.8753 233H54.1239C53.7786 233 53.4988 232.72 53.4988 232.375V223.623Z" fill="#00B7C3"/>
<path d="M72.9625 233H68.6031V224.598H69.5875V232.109H72.9625V233ZM74.6149 225.477C74.443 225.477 74.2965 225.418 74.1754 225.301C74.0543 225.184 73.9938 225.035 73.9938 224.855C73.9938 224.676 74.0543 224.527 74.1754 224.41C74.2965 224.289 74.443 224.229 74.6149 224.229C74.7906 224.229 74.9391 224.289 75.0602 224.41C75.1852 224.527 75.2477 224.676 75.2477 224.855C75.2477 225.027 75.1852 225.174 75.0602 225.295C74.9391 225.416 74.7906 225.477 74.6149 225.477ZM75.0836 233H74.1227V227H75.0836V233ZM82.0094 233H81.0485V229.578C81.0485 228.305 80.5836 227.668 79.6539 227.668C79.1735 227.668 78.775 227.85 78.4586 228.213C78.1461 228.572 77.9899 229.027 77.9899 229.578V233H77.0289V227H77.9899V227.996H78.0133C78.4664 227.238 79.1227 226.859 79.9821 226.859C80.6383 226.859 81.1403 227.072 81.4879 227.498C81.8356 227.92 82.0094 228.531 82.0094 229.332V233ZM88.6481 230.24H84.4117C84.4274 230.908 84.6071 231.424 84.9508 231.787C85.2946 232.15 85.7672 232.332 86.3688 232.332C87.0446 232.332 87.6656 232.109 88.2321 231.664V232.566C87.7047 232.949 87.0074 233.141 86.1403 233.141C85.2926 233.141 84.6266 232.869 84.1422 232.326C83.6578 231.779 83.4156 231.012 83.4156 230.023C83.4156 229.09 83.6793 228.33 84.2067 227.744C84.7379 227.154 85.3961 226.859 86.1813 226.859C86.9664 226.859 87.5739 227.113 88.0035 227.621C88.4332 228.129 88.6481 228.834 88.6481 229.736V230.24ZM87.6637 229.426C87.6598 228.871 87.525 228.439 87.2594 228.131C86.9977 227.822 86.6324 227.668 86.1637 227.668C85.7106 227.668 85.3258 227.83 85.0094 228.154C84.693 228.479 84.4977 228.902 84.4235 229.426H87.6637ZM96.6696 233H95.7086V225.74C95.6344 225.814 95.525 225.9 95.3805 225.998C95.2399 226.092 95.0797 226.186 94.9 226.279C94.7242 226.373 94.5367 226.461 94.3375 226.543C94.1422 226.625 93.9508 226.689 93.7633 226.736V225.764C93.9742 225.705 94.1969 225.627 94.4313 225.529C94.6696 225.428 94.902 225.316 95.1285 225.195C95.359 225.07 95.5758 224.941 95.7789 224.809C95.9821 224.672 96.1578 224.539 96.3063 224.41H96.6696V233Z" fill="#424242"/>
<path d="M115.5 223.623C115.5 223.278 115.78 222.998 116.125 222.998H124.877C125.222 222.998 125.502 223.278 125.502 223.623V232.375C125.502 232.72 125.222 233 124.877 233H116.125C115.78 233 115.5 232.72 115.5 232.375V223.623Z" fill="#B146C2"/>
<path d="M134.964 233H130.605V224.598H131.589V232.109H134.964V233ZM136.616 225.477C136.445 225.477 136.298 225.418 136.177 225.301C136.056 225.184 135.995 225.035 135.995 224.855C135.995 224.676 136.056 224.527 136.177 224.41C136.298 224.289 136.445 224.229 136.616 224.229C136.792 224.229 136.941 224.289 137.062 224.41C137.187 224.527 137.249 224.676 137.249 224.855C137.249 225.027 137.187 225.174 137.062 225.295C136.941 225.416 136.792 225.477 136.616 225.477ZM137.085 233H136.124V227H137.085V233ZM144.011 233H143.05V229.578C143.05 228.305 142.585 227.668 141.656 227.668C141.175 227.668 140.777 227.85 140.46 228.213C140.148 228.572 139.991 229.027 139.991 229.578V233H139.031V227H139.991V227.996H140.015C140.468 227.238 141.124 226.859 141.984 226.859C142.64 226.859 143.142 227.072 143.49 227.498C143.837 227.92 144.011 228.531 144.011 229.332V233ZM150.65 230.24H146.413C146.429 230.908 146.609 231.424 146.952 231.787C147.296 232.15 147.769 232.332 148.37 232.332C149.046 232.332 149.667 232.109 150.234 231.664V232.566C149.706 232.949 149.009 233.141 148.142 233.141C147.294 233.141 146.628 232.869 146.144 232.326C145.659 231.779 145.417 231.012 145.417 230.023C145.417 229.09 145.681 228.33 146.208 227.744C146.74 227.154 147.398 226.859 148.183 226.859C148.968 226.859 149.575 227.113 150.005 227.621C150.435 228.129 150.65 228.834 150.65 229.736V230.24ZM149.665 229.426C149.661 228.871 149.527 228.439 149.261 228.131C148.999 227.822 148.634 227.668 148.165 227.668C147.712 227.668 147.327 227.83 147.011 228.154C146.695 228.479 146.499 228.902 146.425 229.426H149.665ZM158.952 226.801C158.952 226.543 158.911 226.318 158.829 226.127C158.751 225.936 158.642 225.777 158.501 225.652C158.365 225.523 158.202 225.428 158.015 225.365C157.827 225.303 157.624 225.271 157.406 225.271C157.218 225.271 157.034 225.297 156.855 225.348C156.675 225.398 156.499 225.469 156.327 225.559C156.159 225.648 155.995 225.756 155.835 225.881C155.679 226.006 155.532 226.145 155.396 226.297V225.266C155.665 225.004 155.966 224.805 156.298 224.668C156.634 224.527 157.042 224.457 157.523 224.457C157.866 224.457 158.185 224.508 158.478 224.609C158.771 224.707 159.025 224.852 159.24 225.043C159.454 225.234 159.622 225.471 159.743 225.752C159.868 226.033 159.931 226.355 159.931 226.719C159.931 227.051 159.892 227.352 159.814 227.621C159.74 227.891 159.624 228.145 159.468 228.383C159.316 228.621 159.122 228.85 158.888 229.068C158.654 229.287 158.378 229.51 158.062 229.736C157.667 230.018 157.341 230.258 157.083 230.457C156.829 230.656 156.626 230.844 156.474 231.02C156.325 231.191 156.22 231.365 156.157 231.541C156.099 231.713 156.07 231.912 156.07 232.139H160.253V233H155.068V232.584C155.068 232.225 155.107 231.908 155.185 231.635C155.263 231.361 155.392 231.102 155.572 230.855C155.751 230.609 155.986 230.363 156.275 230.117C156.568 229.871 156.925 229.594 157.347 229.285C157.652 229.066 157.906 228.857 158.109 228.658C158.316 228.459 158.482 228.26 158.607 228.061C158.732 227.861 158.82 227.66 158.87 227.457C158.925 227.25 158.952 227.031 158.952 226.801Z" fill="#424242"/>
<path d="M144.647 27.4387L64.5349 67.9238V164.146H445.465V153.047L364.74 45.3902L291.375 133.341L218.011 37.3265L144.647 27.4387Z" fill="#CF87DA" fill-opacity="0.5"/>
<mask id="mask0_2_43978" style="mask-type:alpha" maskUnits="userSpaceOnUse" x="64" y="23" width="382" height="131">
<path d="M144.647 27.4388L64.5349 67.9239V23.269H445.465V153.047L364.74 45.3903L291.375 133.341L218.011 37.3266L144.647 27.4388Z" fill="#B146C2"/>
</mask>
<g mask="url(#mask0_2_43978)">
<path d="M65.7617 67.07L144.647 27.4387L218.011 37.3265L291.375 133.341L364.74 45.3902L444.238 151.752" stroke="white" stroke-width="6" stroke-linecap="round" stroke-linejoin="round"/>
</g>
<path d="M65.8285 67.07L144.685 27.4387L218.022 37.3265L291.36 133.341L364.698 45.3902L444.167 151.752" stroke="#B146C2" stroke-width="2" stroke-linecap="round" stroke-linejoin="round"/>
<path d="M144.647 82.5604L64.5349 91.5526V164.573H445.465V66.6741L364.74 88.0084L291.375 92.2458L218.011 105.563L144.647 82.5604Z" fill="#00B7C3" fill-opacity="0.3"/>
<mask id="mask1_2_43978" style="mask-type:alpha" maskUnits="userSpaceOnUse" x="64" y="29" width="382" height="77">
<path d="M144.63 82.5604L64.5182 91.5526V29.6726H445.448V66.6741L364.723 88.0084L291.359 92.2458L217.994 105.563L144.63 82.5604Z" fill="#637CEF"/>
</mask>
<g mask="url(#mask1_2_43978)">
<path d="M65.1305 90.6988L144.63 82.5604L217.994 105.563L291.359 92.2457L364.723 88.0084L444.223 67.5278" stroke="white" stroke-width="6" stroke-linecap="round" stroke-linejoin="round"/>
</g>
<path d="M65.8118 90.6988L144.669 82.5603L218.006 105.563L291.343 92.2457L364.68 88.0084L444.151 67.5278" stroke="#00B7C3" stroke-width="2" stroke-linecap="round" stroke-linejoin="round"/>
<defs>
<clipPath id="clip0_2_43978">
<rect width="359" height="216" fill="white" transform="translate(0.5)"/>
</clipPath>
</defs>
</svg>
